<?xml version="1.0" encoding="UTF-8" standalone="no"?>
<svg
   class="ionicon"
   viewBox="0 0 512 512"
   version="1.1"
   id="svg6"
   sodipodi:docname="edit-note-outline.svg"
   xml:space="preserve"
   inkscape:version="1.2 (dc2aeda, 2022-05-15)"
   xmlns:inkscape="http://www.inkscape.org/namespaces/inkscape"
   xmlns:sodipodi="http://sodipodi.sourceforge.net/DTD/sodipodi-0.dtd"
   xmlns="http://www.w3.org/2000/svg"
   xmlns:svg="http://www.w3.org/2000/svg"><defs
     id="defs10" /><sodipodi:namedview
     id="namedview8"
     pagecolor="#505050"
     bordercolor="#eeeeee"
     borderopacity="1"
     inkscape:showpageshadow="0"
     inkscape:pageopacity="0"
     inkscape:pagecheckerboard="0"
     inkscape:deskcolor="#505050"
     showgrid="false"
     inkscape:zoom="4.5776685"
     inkscape:cx="238.87706"
     inkscape:cy="339.25567"
     inkscape:window-width="1440"
     inkscape:window-height="900"
     inkscape:window-x="0"
     inkscape:window-y="0"
     inkscape:window-maximized="0"
     inkscape:current-layer="svg6"
     showguides="true"><sodipodi:guide
       position="256.08721,315.07217"
       orientation="1,0"
       id="guide13518"
       inkscape:locked="false" /></sodipodi:namedview><title
     id="title2">Musical Note</title><path
     d="M 240.00087,445.53297 196.65,461.88 C 170.75,470.59 144,451.13 144,423.56 v 0 c -0.0411,-14.71838 9.31525,-27.82131 23.25,-32.56 l 32.50037,-12.24642 C 224.49831,368.19555 240,339.61863 240,319.6219 V 92 c -0.0237,-7.360147 4.93796,-13.80288 12.06,-15.66 L 360.49,48.2 c 3.79765,-0.987528 7.5055,1.87606 7.51,5.8 v 57.76 c 0.0212,7.38118 -4.97052,13.83502 -12.12,15.67 l -91.64,23.13 c -14.30466,3.66772 -24.29061,16.58271 -24.24,31.35 v 39.39"
     fill="none"
     stroke="currentColor"
     stroke-linecap="round"
     stroke-linejoin="round"
     stroke-width="32"
     id="path4"
     sodipodi:nodetypes="ccsscccccccccccc" /><path
     fill="none"
     stroke="currentColor"
     stroke-linecap="round"
     stroke-linejoin="round"
     stroke-width="11.5415"
     d="m 377.39438,247.9501 -163.32891,165.04963 -8.29547,16.23024 16.22664,-8.29546 163.55614,-164.826 z m 20.39965,-20.39961 -8.15843,8.1584 8.15843,8.162 8.15837,-8.162 c 2.25184,-2.25331 0,-8.1584 0,-8.1584 v 0 c 0,0 -5.90506,-2.25181 -8.15837,0 z"
     id="path12727"
     sodipodi:nodetypes="ccccccccccssc" /></svg>
