<?xml version="1.0" encoding="UTF-8" standalone="no"?>
<svg
   class="ionicon"
   viewBox="0 0 512 512"
   version="1.1"
   id="svg13518"
   sodipodi:docname="musical-note.svg"
   inkscape:version="1.2 (dc2aeda, 2022-05-15)"
   xmlns:inkscape="http://www.inkscape.org/namespaces/inkscape"
   xmlns:sodipodi="http://sodipodi.sourceforge.net/DTD/sodipodi-0.dtd"
   xmlns="http://www.w3.org/2000/svg"
   xmlns:svg="http://www.w3.org/2000/svg">
  <defs
     id="defs13522" />
  <sodipodi:namedview
     id="namedview13520"
     pagecolor="#505050"
     bordercolor="#eeeeee"
     borderopacity="1"
     inkscape:showpageshadow="0"
     inkscape:pageopacity="0"
     inkscape:pagecheckerboard="0"
     inkscape:deskcolor="#505050"
     showgrid="false"
     inkscape:zoom="1.7394999"
     inkscape:cx="311.87125"
     inkscape:cy="408.73817"
     inkscape:window-width="1440"
     inkscape:window-height="900"
     inkscape:window-x="0"
     inkscape:window-y="0"
     inkscape:window-maximized="0"
     inkscape:current-layer="svg13518" />
  <title
     id="title13514">Musical Note</title>
  <path
     id="path9175"
     d="m 364.44141,32.142578 c -2.6661,-0.297505 -5.36414,-0.104882 -7.96094,0.56836 L 248.08984,60.849609 C 233.88604,64.509748 223.96991,77.332228 224,92 v 230.08088 c -1.31571,10.96698 -9.52617,30.64977 -27.83396,40.85808 l -34.02542,12.91065 c -20.45141,6.92492 -34.19451,26.13853 -34.14062,47.73047 0.0137,18.16922 8.74293,35.22895 23.4707,45.86914 9.40587,6.83758 20.73086,10.53009 32.35938,10.55078 6.09463,-0.005 12.14753,-1.0054 17.91992,-2.96094 l 21.23464,-8.05472 C 259.94946,454.75807 256,458.89032 256,424 v -9.27734 l -12.50781,12.61132 c -7.43632,7.71188 -21.63946,15.57364 -33.13281,18.33985 -0.7919,0.31818 -11.62533,1.11878 -17.00782,-4.78906 -5.38248,-5.90786 -4.21731,-16.77788 -4.04101,-17.6875 3.3604,-10.99925 10.27791,-22.70462 18.11328,-31.47461 L 249.1218,349.2527 c 0,0 2.04802,-4.72433 2.98337,-7.68711 1.12724,-3.5706 2.06461,-6.59001 2.74632,-10.33432 0.67068,-3.68376 1.14451,-7.3337 1.14451,-11.07801 -0.004,-46.08103 0.005,-138.2431 0.005,-138.2431 -0.0564,-7.43984 4.95005,-13.96649 12.15039,-15.83985 l 91.65039,-23.13086 C 374.06422,139.32109 384.03884,126.46518 384,111.75 V 54 C 383.997,42.797054 375.57516,33.385804 364.44141,32.142578 Z"
     style="fill:#000000"
     sodipodi:nodetypes="ccccccccccccccccscccssscccccc" />
  <path
     fill="none"
     stroke="currentColor"
     stroke-linecap="round"
     stroke-linejoin="round"
     stroke-width="11.5415"
     d="m 377.39438,247.94966 -163.32891,165.04963 -8.29547,16.23024 16.22664,-8.29546 163.55614,-164.826 z m 20.39965,-20.39961 -8.15843,8.1584 8.15843,8.162 8.15837,-8.162 c 2.25184,-2.25331 0,-8.1584 0,-8.1584 v 0 c 0,0 -5.90506,-2.25181 -8.15837,0 z"
     id="path12727"
     sodipodi:nodetypes="ccccccccccssc" />
</svg>
